# xmcd
#
# Track frame offsets:
#  150
#  18452
#  33052
#  50026
#  70615
#  98237
#  124882
#  144219
#  162180
#  188891
#  220788
#  249838
#  280099
#
# Disc length: 4193 seconds
#
# Revision: 0
# Processed by: cddbd v1.5.1PL2 Copyright (c) Steve Scherf et al.
# Submitted via: Collectorz.com_Music_Collector 6.10
#
DISCID=ac105f0d
DTITLE=Various Artist - Eurotech Esp. 10
DYEAR=1900
DGENRE=
TTITLE0=Lady Bouncer - Dirty Mary
TTITLE1=Marascia - Shake It
TTITLE2=Andrea Doria - Bucci Bag
TTITLE3=Lasgo - Follow You (12" Mix)
TTITLE4=Erika - I Don't Know (Extended Mix)
TTITLE5=Whigfield - Saturday Night 2003
TTITLE6=DJ Otzi - Do Way Diddy (Extended Mix)
TTITLE7=Lasgo - Megamix
TTITLE8=Groove Armada - Easy
TTITLE9=Tim Deluxe - It Just Won't Do
TTITLE10=Layo and Bushwacka! - Finally A Love Story
TTITLE11=Benny Benassi - Satisfaction (Isak Remix)
TTITLE12=Warp Brothers - Going Insane
EXTD=
EXTT0=
EXTT1=
EXTT2=
EXTT3=
EXTT4=
EXTT5=
EXTT6=
EXTT7=
EXTT8=
EXTT9=
EXTT10=
EXTT11=
EXTT12=
PLAYORDER=
